<svg preserveAspectRatio="none" width="100%" height="100%" overflow="visible" style="display: block;" viewBox="0 0 28.5 30" fill="none" xmlns="http://www.w3.org/2000/svg">
<g id="Container">
<path id="Icon" d="M21 30V25.5H16.5V22.5H21V18H24V22.5H28.5V25.5H24V30H21V30M3 27C2.175 27 1.46875 26.7062 0.88125 26.1187C0.29375 25.5312 0 24.825 0 24V6C0 5.175 0.29375 4.46875 0.88125 3.88125C1.46875 3.29375 2.175 3 3 3H4.5V0H7.5V3H16.5V0H19.5V3H21C21.825 3 22.5312 3.29375 23.1187 3.88125C23.7062 4.46875 24 5.175 24 6V15.15C23.5 15.075 23 15.0375 22.5 15.0375C22 15.0375 21.5 15.075 21 15.15V12H3V24V24V24H13.5C13.5 24.5 13.5375 25 13.6125 25.5C13.6875 26 13.825 26.5 14.025 27H3V27M3 9H21V6V6V6H3V6V6V9V9M3 9V6V6V6V6V6V6V9V9V9" fill="var(--fill-0, #001A18)"/>
</g>
</svg>
